<?xml version="1.0" encoding="UTF-8" standalone="no"?>
<!-- Created with Inkscape (http://www.inkscape.org/) -->

<svg
   width="210mm"
   height="297mm"
   viewBox="0 0 210 297"
   version="1.1"
   id="svg1"
   inkscape:version="1.3.2 (1:1.3.2+202311252150+091e20ef0f)"
   sodipodi:docname="houslovy klic.svg"
   xmlns:inkscape="http://www.inkscape.org/namespaces/inkscape"
   xmlns:sodipodi="http://sodipodi.sourceforge.net/DTD/sodipodi-0.dtd"
   xmlns="http://www.w3.org/2000/svg"
   xmlns:svg="http://www.w3.org/2000/svg">
  <sodipodi:namedview
     id="namedview1"
     pagecolor="#ffffff"
     bordercolor="#000000"
     borderopacity="0.25"
     inkscape:showpageshadow="2"
     inkscape:pageopacity="0.0"
     inkscape:pagecheckerboard="0"
     inkscape:deskcolor="#d1d1d1"
     inkscape:document-units="mm"
     inkscape:zoom="0.70377385"
     inkscape:cx="315.44224"
     inkscape:cy="501.58158"
     inkscape:window-width="1920"
     inkscape:window-height="990"
     inkscape:window-x="0"
     inkscape:window-y="28"
     inkscape:window-maximized="1"
     inkscape:current-layer="layer1" />
  <defs
     id="defs1" />
  <g
     inkscape:label="Vrstva 1"
     inkscape:groupmode="layer"
     id="layer1">
    <path
       style="fill:#000000;stroke-width:0.264583"
       d="M 100.62173,171.85518 C 79.057427,174.00232 80.090021,150.9937 80.090021,150.9937 c 0,0 4.654808,-26.56631 32.961689,-24.82139 28.26966,1.74263 34.36334,24.94812 32.81247,38.13686 -6.45432,54.8882 -120.520972,37.8497 -92.80102,-33.77576 C 59.920057,112.8159 73.487626,93.701862 90.182924,73.604378 111.851,47.520763 124.69953,34.447537 125.26193,23.859406 c 0.51691,-9.731887 -10.1274,-9.854282 -16.27757,-0.852861 -2.43343,3.561598 -6.89053,10.807417 -7.17899,20.68878 -1.2723,43.583425 16.79572,130.957275 25.66772,186.134145 0.40723,2.53266 -0.35412,13.63694 -8.42845,16.19719 -3.93057,1.24632 -9.99178,2.32735 -16.89332,0.26116 -13.786707,-4.12746 -15.916488,-24.59057 -0.0358,-25.27636 6.8236,-0.29468 10.99313,5.23484 8.26736,12.8591 -1.3654,3.81918 -8.17002,3.54048 -8.17002,3.54048 -1.48884,3.40193 3.03125,7.1185 9.45103,6.16251 3.71981,-0.55393 8.20976,-1.5759 9.43023,-5.18819 1.74403,-5.16188 0.92249,-11.87468 0.11273,-17.26829 C 112.85684,165.49907 100.25554,110.35726 96.927189,57.305339 96.356598,48.210449 95.672615,43.08008 95.947073,35.058491 96.3001,24.740515 98.698653,16.661343 105.85652,8.5441838 110.9407,2.778622 117.9241,-0.18899424 120.70308,1.7859645 c 9.27236,6.5896545 9.4191,25.8969735 7.45363,34.3858035 -2.76172,11.927805 -11.24432,30.311754 -21.64095,44.000607 -16.675632,21.956185 -48.058808,60.085385 -46.310489,77.926475 1.661463,16.95477 4.626658,23.18451 19.670704,29.70637 19.223096,8.33354 54.597935,1.47416 56.402965,-21.57333 0.91646,-11.70195 -3.47085,-17.26718 -7.98508,-21.43251 -10.33613,-9.53725 -27.17687,-5.46528 -27.68133,-5.24378 -8.966668,3.93712 -14.834651,11.28932 -13.544907,19.87167 0.97998,6.52108 4.617702,8.48195 13.554107,12.42791 z"
       id="path2"
       sodipodi:nodetypes="ccsssssssssssscsssssssssssssssc" />
  </g>
</svg>
